<svg xmlns="http://www.w3.org/2000/svg" width="958.786" height="621.622" viewBox="0 0 958.786 621.622">
  <g id="Group_1" data-name="Group 1" transform="translate(-960 -458.5)">
    <path id="Subtraction_1" data-name="Subtraction 1" d="M195,234a164.972,164.972,0,0,1-39.3-4.754,171.278,171.278,0,0,1-36.6-13.635,187.588,187.588,0,0,1-33.124-21.575,209.314,209.314,0,0,1-28.859-28.573A231.923,231.923,0,0,1,33.3,130.832,251.9,251.9,0,0,1,15.324,91.083,268.008,268.008,0,0,1,3.962,47.159,281.341,281.341,0,0,1,0,0H390a281.355,281.355,0,0,1-3.962,47.159,268.058,268.058,0,0,1-11.362,43.924A251.934,251.934,0,0,1,356.7,130.832a231.876,231.876,0,0,1-23.811,34.631,209.311,209.311,0,0,1-28.859,28.573A187.594,187.594,0,0,1,270.9,215.611a171.284,171.284,0,0,1-36.6,13.635A164.972,164.972,0,0,1,195,234Z" transform="translate(1781.683 458.5) rotate(90)" fill="#faa364"/>
    <path id="Subtraction_3" data-name="Subtraction 3" d="M-927.555,830H-1659.5a215.093,215.093,0,0,1-43.028-4.337,212.443,212.443,0,0,1-40.075-12.441,213.461,213.461,0,0,1-36.266-19.685,214.973,214.973,0,0,1-31.6-26.07,215.038,215.038,0,0,1-26.07-31.6,213.534,213.534,0,0,1-19.685-36.266,212.4,212.4,0,0,1-12.44-40.076A215.018,215.018,0,0,1-1873,616.5a214.989,214.989,0,0,1,4.338-43.027,212.4,212.4,0,0,1,12.44-40.076,213.564,213.564,0,0,1,19.685-36.266,215.044,215.044,0,0,1,26.07-31.6,215.041,215.041,0,0,1,31.6-26.07,213.529,213.529,0,0,1,36.266-19.685,212.358,212.358,0,0,1,40.075-12.44A215.082,215.082,0,0,1-1659.5,403h731.944V830h0Z" transform="translate(2833 250)" fill="#f86465"/>
    <path id="Path_1" data-name="Path 1" d="M2252.016,517.517,2811.788-12.6V517.517Z" transform="translate(-893.002 562.605)" fill="#6454d4"/>
  </g>
</svg>
