<svg width="1600" height="220" viewBox="0 0 1600 220" fill="none" xmlns="http://www.w3.org/2000/svg">
    <path d="M380 215C124 231 -34 203 -79 143V-46L1723 -60C1743.67 31 1767.2 206.2 1696 179C1607 145 1341 113 1136 114C931 115 636 199 380 215Z" fill="white" fill-opacity="0.45"/>
    <path d="M1068.96 201.945C812.961 217.945 181.961 46.9448 136.961 -13.0552C136.961 -13.0552 0.431396 -118.438 192.961 -154.055C884.965 -282.075 2426.96 -142.055 2426.96 -142.055C2447.63 -51.0552 2471.16 124.145 2399.96 96.9446C2310.96 62.9446 2044.96 30.9448 1839.96 31.9448C1634.96 32.9448 1324.96 185.945 1068.96 201.945Z" fill="white" fill-opacity="0.45"/>
</svg>
